<svg xmlns="http://www.w3.org/2000/svg" viewBox="0 0 32 32">
  <defs>
    <linearGradient id="green" x1="0" y1="0" x2="0" y2="1">
      <stop stop-color="#8a9b19"/><stop offset="1" stop-color="#4f6700"/>
    </linearGradient>
    <linearGradient id="blue" x1="0" y1="0" x2="0" y2="1">
      <stop stop-color="#4f86c6"/><stop offset="1" stop-color="#24588f"/>
    </linearGradient>
    <radialGradient id="skin" cx="38%" cy="30%" r="70%">
      <stop stop-color="#ffd57a"/><stop offset=".58" stop-color="#efa52c"/><stop offset="1" stop-color="#b56b0b"/>
    </radialGradient>
  </defs>
  <path d="M3.5 25.5c0-7.1 2.6-11 7.8-11s7.8 3.9 7.8 11c-3.4 2.6-12.1 2.6-15.6 0z" fill="url(#green)" stroke="#536707" stroke-width="1.4"/>
  <circle cx="10.5" cy="9" r="5.7" fill="url(#skin)" stroke="#98610e" stroke-width="1.3"/>
  <path d="M11.7 28.2c0-8.8 3.2-13.4 9.3-13.4s9.3 4.6 9.3 13.4c-4.1 3-14.5 3-18.6 0z" fill="url(#blue)" stroke="#204a87" stroke-width="1.5"/>
  <path d="M18.7 15.8l2.3 3.3 2.2-3.3-1.1 8.2-1.1 2.3-1.2-2.3z" fill="#f7f7f7"/>
  <circle cx="21" cy="10.4" r="6.4" fill="url(#skin)" stroke="#bd770d" stroke-width="1.4"/>
  <path d="M15.5 27.4c3.4 1.4 7.7 1.5 11.1.1" fill="none" stroke="#729fcf" stroke-linecap="round"/>
</svg>
