<svg xmlns="http://www.w3.org/2000/svg" viewBox="0 0 32 32">
  <defs><linearGradient id="steel" x1="0" y1="0" x2="1" y2="1"><stop stop-color="#fff"/><stop offset=".5" stop-color="#d3d7cf"/><stop offset="1" stop-color="#888a85"/></linearGradient></defs>
  <path d="M13.3 18.2L5.2 3.2c-.7-1.3.9-2.4 1.8-1.2l10.2 13.8M18.7 18.2l8.1-15c.7-1.3-.9-2.4-1.8-1.2L14.8 15.8" fill="url(#steel)" stroke="#888a85" stroke-width="1.1" stroke-linejoin="round"/>
  <circle cx="16" cy="17" r="1.6" fill="#babdb6" stroke="#555753" stroke-width=".8"/>
  <path d="M13.8 20.1c-2.1-3.2-5.8-4.5-8.3-2.8s-2.8 5.6-.7 8.8 5.8 4.5 8.3 2.8 2.8-5.6.7-8.8zm-2.7 2c1.1 1.7.9 3.7-.4 4.6s-3.2.1-4.3-1.6-.9-3.7.4-4.6 3.2-.1 4.3 1.6zM18.2 20.1c2.1-3.2 5.8-4.5 8.3-2.8s2.8 5.6.7 8.8-5.8 4.5-8.3 2.8-2.8-5.6-.7-8.8zm2.7 2c-1.1 1.7-.9 3.7.4 4.6s3.2.1 4.3-1.6.9-3.7-.4-4.6-3.2-.1-4.3 1.6z" fill="#ef2929" stroke="#a40000" stroke-width="1" fill-rule="evenodd"/>
</svg>
