<svg xmlns="http://www.w3.org/2000/svg" viewBox="0 0 32 32">
  <path d="M3 26c4.2 4.4 9.7 1.4 13.2-4.1 3.1-4.8 5.4-8.7 8.2-7.5 2.8 1.1 .1 8.4 4.6 10.4" fill="none" stroke="#050b14" stroke-width="7" stroke-linecap="round" stroke-linejoin="round"/>
  <path d="M3 26c4.2 4.4 9.7 1.4 13.2-4.1 3.1-4.8 5.4-8.7 8.2-7.5 2.8 1.1 .1 8.4 4.6 10.4" fill="none" stroke="#28497d" stroke-width="5.2" stroke-linecap="round" stroke-linejoin="round"/>
  <path d="M4 25.5c3.8 2.6 7.2-.3 10.3-4.5" fill="none" stroke="#5f7eae" stroke-width="1.3" stroke-linecap="round"/>
  <path d="M7 24l3 2L24 8l-3-3z" fill="#e9a92c" stroke="#9d6b12" stroke-width=".8"/>
  <path d="M9 23.5L22.5 6.5" stroke="#f5c44b" stroke-width="1"/>
  <path d="M21 5l3 3 2.5-3.2-3-3z" fill="#ef4444" stroke="#a40000" stroke-width=".6"/>
  <path d="M7 24l-3 5.5 6-3.5z" fill="#e2bd78" stroke="#8f6a2e" stroke-width=".6"/>
  <path d="M4 29.5l2-1.8 1.1 1.1z" fill="#2e3436"/>
</svg>
