<svg xmlns="http://www.w3.org/2000/svg" viewBox="0 0 32 32">
  <defs><radialGradient id="g" cx="34%" cy="27%" r="75%"><stop stop-color="#9ec5ed"/><stop offset=".7" stop-color="#5b8abe"/><stop offset="1" stop-color="#3465a4"/></radialGradient></defs>
  <circle cx="16" cy="16" r="13.2" fill="url(#g)" stroke="#3465a4" stroke-width="1.3"/>
  <circle cx="16" cy="16" r="11.1" fill="none" stroke="#fff" stroke-width="1.5" opacity=".95"/>
  <path d="M11.1 11.1c.3-3.5 2.5-5.3 5.7-5.3 3.5 0 5.8 2.1 5.8 5.2 0 2.5-1.2 3.7-3.4 5.3-1.7 1.2-2.1 2-2.1 3.8h-3.5c0-2.9.8-4.2 3-5.9 1.5-1.1 2.2-1.8 2.2-3 0-1.3-.8-2.2-2.2-2.2-1.5 0-2.3.8-2.5 2.5zm2.4 11.3h4v4h-4z" fill="#fff"/>
</svg>
