<svg xmlns="http://www.w3.org/2000/svg" viewBox="0 0 32 32">
  <defs><linearGradient id="g" x1="0" y1="0" x2="0" y2="1"><stop stop-color="#d9e1f3"/><stop offset=".6" stop-color="#a9b5d4"/><stop offset="1" stop-color="#8795be"/></linearGradient></defs>
  <path fill="url(#g)" stroke="#59698f" stroke-width="1.5" stroke-linejoin="round" fill-rule="evenodd" d="M13 2h6l1 4 3 1 4-2 4 4-2 4 1 3 4 1v6l-4 1-1 3 2 4-4 4-4-2-3 1-1 4h-6l-1-4-3-1-4 2-4-4 2-4-1-3-4-1v-6l4-1 1-3-2-4 4-4 4 2 3-1zm3 9a6 6 0 1 0 0 12 6 6 0 0 0 0-12z" transform="scale(.78) translate(4.5 1.5)"/>
  <circle cx="16" cy="16" r="4.8" fill="#fff" stroke="#667595" stroke-width="1.5"/>
  <path fill="none" stroke="#fff" stroke-width="1" opacity=".7" d="M8 11l3-3 3 1"/>
</svg>
