<svg xmlns="http://www.w3.org/2000/svg" viewBox="0 0 32 32">
  <title>Fill</title>
  <defs>
    <linearGradient id="paint" x1="5" y1="10" x2="11" y2="25" gradientUnits="userSpaceOnUse">
      <stop stop-color="#9fc5ef"/><stop offset="1" stop-color="#5f7fb8"/>
    </linearGradient>
    <linearGradient id="bucket" x1="14" y1="8" x2="23" y2="25" gradientUnits="userSpaceOnUse">
      <stop stop-color="#fff"/><stop offset="1" stop-color="#dcdedc"/>
    </linearGradient>
  </defs>
  <ellipse cx="19" cy="27.8" rx="10" ry="1.2" fill="#999" opacity=".2"/>
  <path d="M5.5 10.5h5v13h-5z" fill="url(#paint)" stroke="#607ba8" stroke-width="1.2"/>
  <path d="m9.5 11.5 10-6 10 15-11 7z" fill="url(#bucket)" stroke="#777a76" stroke-width="1.5" stroke-linejoin="round"/>
  <path d="M16.5 13.5c-.1-6.8 1.2-10 5.1-10 4 0 5.2 3.3 4.8 10.4" fill="none" stroke="#747873" stroke-width="2.2" stroke-linecap="round"/>
  <path d="M18.2 12.4c0-4.5.8-6.4 3.3-6.4 2.6 0 3.4 2 3.2 6.5" fill="none" stroke="#e8e9e8" stroke-width="1.2"/>
  <circle cx="18.7" cy="14" r="2.2" fill="#858984" stroke="#646762"/>
  <circle cx="18.7" cy="14" r=".8" fill="#d9dbd8"/>
  <path d="m11.3 12.3 8.4-5.1" stroke="#fff" stroke-width="1.2" opacity=".75"/>
</svg>
