<svg xmlns="http://www.w3.org/2000/svg" viewBox="0 0 32 32">
  <title>Cut</title>
  <defs>
    <linearGradient id="steel" x1="8" y1="3" x2="21" y2="20" gradientUnits="userSpaceOnUse">
      <stop stop-color="#f4f7fb"/><stop offset="1" stop-color="#8ba5ca"/>
    </linearGradient>
  </defs>
  <path d="M15.5 17.2 7.1 5.4 9.5 2l8.1 13.5z" fill="url(#steel)" stroke="#607da7" stroke-width="1.2" stroke-linejoin="round"/>
  <path d="m16.5 17.2 8.4-11.8L22.5 2l-8.1 13.5z" fill="url(#steel)" stroke="#607da7" stroke-width="1.2" stroke-linejoin="round"/>
  <circle cx="16" cy="17" r="2" fill="#2d4165" stroke="#142a4d"/>
  <path d="M14.8 18.2c-2.3-.7-5.5-.1-7.6 2-2.5 2.5-2.8 5.9-.7 7.2 2.3 1.5 5.8-.1 7.5-2.8 1.2-1.9 1.4-4.3.8-6.4zm-2.6 3.1c.7.8.2 2.4-1 3.5-1.3 1.2-2.9 1.5-3.6.6-.7-.8-.2-2.4 1-3.5 1.3-1.2 2.9-1.5 3.6-.6z" fill="#273d62" stroke="#142a4d"/>
  <path d="M17.2 18.2c2.3-.7 5.5-.1 7.6 2 2.5 2.5 2.8 5.9.7 7.2-2.3 1.5-5.8-.1-7.5-2.8-1.2-1.9-1.4-4.3-.8-6.4zm2.6 3.1c-.7.8-.2 2.4 1 3.5 1.3 1.2 2.9 1.5 3.6.6.7-.8.2-2.4-1-3.5-1.3-1.2-2.9-1.5-3.6-.6z" fill="#273d62" stroke="#142a4d"/>
</svg>
