<svg xmlns="http://www.w3.org/2000/svg" viewBox="0 0 32 32">
  <title>Rotate</title>
  <path d="M23.8 5.8C16.8 1.4 7.2 5.5 3.8 13 0.4 20.6 5.6 29.2 14 30c7.7.7 13.5-3.6 15.3-10l-5.5-1.5c-1.2 3.9-4.4 6.3-8.5 6-5.1-.4-8.4-4.9-7.2-9.8 1.2-4.9 6.8-7.4 11.2-5.1z" fill="#b8cde7" stroke="#6e89b5" stroke-width="1.2" stroke-linejoin="round"/>
  <path d="M8.2 12.3c2.4-4.6 7.7-6.4 11.7-4.4l-1 1.5c-3.6-1.3-7.5.4-9.3 3.8-2.3 4.4-.4 8.4 2.1 10.3-3.8-1.6-6-6.5-3.5-11.2z" fill="#edf3fa"/>
  <path d="M22 6.5h5V2.5h2v6h-7z" fill="#b8cde7" stroke="#6e89b5" stroke-width="1.2"/>
</svg>
