<svg xmlns="http://www.w3.org/2000/svg" viewBox="0 0 32 32">
  <title>Undo</title>
  <defs>
    <linearGradient id="gold" x1="7" y1="5" x2="25" y2="27" gradientUnits="userSpaceOnUse">
      <stop stop-color="#fff48b"/><stop offset=".55" stop-color="#ffe31e"/><stop offset="1" stop-color="#e9c600"/>
    </linearGradient>
  </defs>
  <ellipse cx="21" cy="28.5" rx="9" ry="1.2" fill="#8b7a25" opacity=".16"/>
  <path d="M2 12 15 1v6c9 0 15 4.7 15 12 0 7.2-5.8 11-14.5 11v-7c4.8 0 7.5-1.6 7.5-5 0-3.2-2.8-5-8-5v6z" fill="url(#gold)" stroke="#c19f00" stroke-width="1.4" stroke-linejoin="round"/>
  <path d="m5.2 11.9 8.3-7v4c8.2 0 13.3 4.2 13.3 10.4 0 2.7-1.1 4.7-2.8 6.1 1.1-1.6 1.5-3.3 1.5-5.2 0-5.7-4.8-9.2-13-9.2v3.6z" fill="#fff8af" opacity=".65"/>
</svg>
