<svg xmlns="http://www.w3.org/2000/svg" viewBox="0 0 32 32">
  <title>Show all</title>
  <defs>
    <linearGradient id="field" x1="4" y1="3" x2="28" y2="29" gradientUnits="userSpaceOnUse">
      <stop stop-color="#f8fbfc"/><stop offset="1" stop-color="#e7eff2"/>
    </linearGradient>
  </defs>
  <rect x="2.5" y="2.5" width="27" height="27" fill="url(#field)" stroke="#777" stroke-width="1.5"/>
  <g fill="#2d568e">
    <path d="M4 4h10l-3 3 4 4-4 4-4-4-3 3z"/>
    <path d="M28 4H18l3 3-4 4 4 4 4-4 3 3z"/>
    <path d="M4 28h10l-3-3 4-4-4-4-4 4-3-3z"/>
    <path d="M28 28H18l3-3-4-4 4-4 4 4 3-3z"/>
  </g>
  <path d="m8 8 5 5M24 8l-5 5M8 24l5-5M24 24l-5-5" stroke="#90aed3" stroke-width="2"/>
</svg>
